<svg width="540.3px" height="122.5px" xmlns="http://www.w3.org/2000/svg" viewBox="-20.14000854492184 13.759994506835938 540.2800170898437 122.48001098632812" style="background: rgba(0, 0, 0, 0) none repeat scroll 0% 0%" preserveAspectRatio="xMidYMid"><defs><linearGradient id="editing-gradient-gradient" x1="0" x2="1" y1="0.5" y2="0.5" gradientUnits="objectBoundingBox"><stop offset="0" stop-color="#51b3e6"></stop><stop offset="1" stop-color="#ff00ff"></stop></linearGradient></defs><g><g transform="matrix(1.1,0,0,1.5,-8.7,167)"><path d="M 8 -39.4 L -5.9 -39.4 L 2.2 -81.6 L 16.3 -81.6 L 8 -39.4 Z M 63.8 -38.1 L 63.8 -38.1 L 63.8 -38.1 Q 56 -38.1 56 -44.1 L 56 -44.1 L 56 -44.1 Q 56 -46.8 57.2 -51.8 L 57.2 -51.8 L 57.2 -51.8 Q 58.3 -56.9 58.7 -59 L 58.7 -59 L 58.7 -59 Q 59.6 -63.7 59.6 -65.1 L 59.6 -65.1 L 59.6 -65.1 Q 59.6 -68.4 57.1 -68.4 L 57.1 -68.4 L 57.1 -68.4 Q 55.5 -68.4 54 -66.2 L 54 -66.2 L 54 -66.2 Q 52.5 -64 51.8 -59.6 L 51.8 -59.6 L 47.8 -39.4 L 35.3 -38.1 L 38.8 -55.5 L 38.8 -55.5 Q 39.3 -58.4 39.8 -61.7 L 39.8 -61.7 L 39.8 -61.7 Q 40.4 -64.9 40.4 -65.4 L 40.4 -65.4 L 40.4 -65.4 Q 40.4 -68.4 38.2 -68.4 L 38.2 -68.4 L 38.2 -68.4 Q 36.7 -68.4 35.1 -66.2 L 35.1 -66.2 L 35.1 -66.2 Q 33.5 -64 32.6 -59.6 L 32.6 -59.6 L 28.7 -39.4 L 16.1 -38.1 L 22.8 -72 L 33.3 -73.3 L 32.2 -66.9 L 32.2 -66.9 Q 33.8 -70.3 36.9 -71.8 L 36.9 -71.8 L 36.9 -71.8 Q 40 -73.3 44.8 -73.3 L 44.8 -73.3 L 44.8 -73.3 Q 47.5 -73.3 49.3 -72 L 49.3 -72 L 49.3 -72 Q 51.1 -70.6 51.7 -68.5 L 51.7 -68.5 L 51.7 -68.5 Q 52.8 -70.7 55.6 -72 L 55.6 -72 L 55.6 -72 Q 58.3 -73.3 61.8 -73.3 L 61.8 -73.3 L 61.8 -73.3 Q 65.2 -73.3 66.9 -72.6 L 66.9 -72.6 L 66.9 -72.6 Q 68.6 -71.8 69.6 -70.6 L 69.6 -70.6 L 69.6 -70.6 Q 71.3 -68.4 71.3 -64.3 L 71.3 -64.3 L 71.3 -64.3 Q 71.3 -60.3 69.6 -51.9 L 69.6 -51.9 L 69.6 -51.9 Q 68.7 -47.8 68.7 -46.3 L 68.7 -46.3 L 68.7 -46.3 Q 68.7 -44.8 69.6 -43.9 L 69.6 -43.9 L 69.6 -43.9 Q 70.4 -43 71.7 -42.9 L 71.7 -42.9 L 71.7 -42.9 Q 71.1 -40.7 68.9 -39.4 L 68.9 -39.4 L 68.9 -39.4 Q 66.7 -38.1 63.8 -38.1 Z M 79.4 -41.3 L 79.4 -41.3 L 79.4 -41.3 Q 77.9 -43 77.3 -45.6 L 77.3 -45.6 L 77.3 -45.6 Q 76.6 -48.2 76.6 -52.5 L 76.6 -52.5 L 76.6 -52.5 Q 76.6 -56.8 78.1 -60.7 L 78.1 -60.7 L 78.1 -60.7 Q 79.5 -64.6 82.2 -67.4 L 82.2 -67.4 L 82.2 -67.4 Q 87.7 -73.3 96.8 -73.3 L 96.8 -73.3 L 96.8 -73.3 Q 100.1 -73.3 102.4 -72.2 L 102.4 -72.2 L 113.4 -73.3 L 108.6 -48.4 L 108.6 -48.4 Q 108.5 -47.6 108.5 -46.2 L 108.5 -46.2 L 108.5 -46.2 Q 108.5 -44.8 109.3 -43.9 L 109.3 -43.9 L 109.3 -43.9 Q 110.2 -43 111.5 -42.9 L 111.5 -42.9 L 111.5 -42.9 Q 110.8 -40.7 108.5 -39.4 L 108.5 -39.4 L 108.5 -39.4 Q 106.2 -38.1 103.5 -38.1 L 103.5 -38.1 L 103.5 -38.1 Q 100.9 -38.1 99.1 -39.1 L 99.1 -39.1 L 99.1 -39.1 Q 97.4 -40.1 96.9 -41.8 L 96.9 -41.8 L 96.9 -41.8 Q 95.8 -40.2 93.7 -39.1 L 93.7 -39.1 L 93.7 -39.1 Q 91.5 -38.1 88.6 -38.1 L 88.6 -38.1 L 88.6 -38.1 Q 85.7 -38.1 83.3 -38.9 L 83.3 -38.9 L 83.3 -38.9 Q 80.9 -39.7 79.4 -41.3 Z M 92.9 -67.3 L 92.9 -67.3 L 92.9 -67.3 Q 92.2 -66.1 91.6 -64.2 L 91.6 -64.2 L 91.6 -64.2 Q 90.9 -62.2 89.9 -57 L 89.9 -57 L 89.9 -57 Q 88.8 -51.8 88.8 -48.1 L 88.8 -48.1 L 88.8 -48.1 Q 88.8 -44.4 89.4 -43.3 L 89.4 -43.3 L 89.4 -43.3 Q 90 -42.2 91 -42.2 L 91 -42.2 L 91 -42.2 Q 93 -42.2 94.5 -44.2 L 94.5 -44.2 L 94.5 -44.2 Q 96 -46.1 96.6 -49.6 L 96.6 -49.6 L 100 -68.3 L 100 -68.3 Q 98.7 -69.5 97.1 -69.5 L 97.1 -69.5 L 97.1 -69.5 Q 95.5 -69.5 94.6 -69 L 94.6 -69 L 94.6 -69 Q 93.7 -68.5 92.9 -67.3 Z M 121.1 -66.1 L 121.1 -66.1 L 121.1 -66.1 Q 123.3 -69.2 126.6 -71.3 L 126.6 -71.3 L 126.6 -71.3 Q 129.9 -73.3 133.9 -73.3 L 133.9 -73.3 L 133.9 -73.3 Q 138 -73.3 139.9 -72 L 139.9 -72 L 152.4 -73.3 L 148.1 -48.7 L 148.1 -48.7 Q 145.8 -36.2 141.1 -31.3 L 141.1 -31.3 L 141.1 -31.3 Q 136.6 -26.6 127.7 -26.6 L 127.7 -26.6 L 127.7 -26.6 Q 121 -26.6 117.2 -28.7 L 117.2 -28.7 L 117.2 -28.7 Q 113.3 -30.8 113.3 -34.3 L 113.3 -34.3 L 113.3 -34.3 Q 113.3 -37 115.3 -38.5 L 115.3 -38.5 L 115.3 -38.5 Q 117.3 -40 120.4 -40 L 120.4 -40 L 120.4 -40 Q 123 -40 125.1 -38.8 L 125.1 -38.8 L 125.1 -38.8 Q 126.3 -38.1 126.9 -37.2 L 126.9 -37.2 L 126.9 -37.2 Q 125.4 -35.9 125.4 -33.8 L 125.4 -33.8 L 125.4 -33.8 Q 125.4 -31.1 128 -31.1 L 128 -31.1 L 128 -31.1 Q 132.3 -31.1 134.7 -41.2 L 134.7 -41.2 L 134.7 -41.2 Q 135.4 -43.9 136 -46.7 L 136 -46.7 L 136 -46.7 Q 133.1 -43.2 126.6 -43.2 L 126.6 -43.2 L 126.6 -43.2 Q 122 -43.2 119.4 -45.3 L 119.4 -45.3 L 119.4 -45.3 Q 116.8 -47.5 116.8 -52.6 L 116.8 -52.6 L 116.8 -52.6 Q 116.8 -55.8 117.9 -59.5 L 117.9 -59.5 L 117.9 -59.5 Q 119 -63.1 121.1 -66.1 Z M 129.4 -52.5 L 129.4 -52.5 L 129.4 -52.5 Q 129.4 -48.1 131.7 -48.1 L 131.7 -48.1 L 131.7 -48.1 Q 133.2 -48.1 134.7 -49.8 L 134.7 -49.8 L 134.7 -49.8 Q 135.8 -51.1 136.3 -53.1 L 136.3 -53.1 L 139.6 -69.5 L 139.6 -69.5 Q 139.2 -69.6 138.9 -69.7 L 138.9 -69.7 L 138.9 -69.7 Q 138.3 -70 137.4 -70 L 137.4 -70 L 137.4 -70 Q 133.5 -70 131.2 -63.6 L 131.2 -63.6 L 131.2 -63.6 Q 129.4 -58.6 129.4 -52.5 Z M 180.8 -50.2 L 180.8 -50.2 L 180.8 -50.2 Q 182.4 -49.1 182.4 -46.7 L 182.4 -46.7 L 182.4 -46.7 Q 182.4 -44.3 181.2 -42.8 L 181.2 -42.8 L 181.2 -42.8 Q 180 -41.3 178 -40.2 L 178 -40.2 L 178 -40.2 Q 173.9 -38.1 169.5 -38.1 L 169.5 -38.1 L 169.5 -38.1 Q 165.1 -38.1 162.5 -39.1 L 162.5 -39.1 L 162.5 -39.1 Q 159.9 -40 158.2 -41.8 L 158.2 -41.8 L 158.2 -41.8 Q 154.8 -45.2 154.8 -51.4 L 154.8 -51.4 L 154.8 -51.4 Q 154.8 -61.1 160 -67 L 160 -67 L 160 -67 Q 165.7 -73.3 175.5 -73.3 L 175.5 -73.3 L 175.5 -73.3 Q 181.5 -73.3 184.6 -70.8 L 184.6 -70.8 L 184.6 -70.8 Q 186.8 -68.8 186.8 -65.7 L 186.8 -65.7 L 186.8 -65.7 Q 186.8 -54.4 167.3 -54.4 L 167.3 -54.4 L 167.3 -54.4 Q 167.1 -52.8 167.1 -51.4 L 167.1 -51.4 L 167.1 -51.4 Q 167.1 -48.4 168.4 -47.3 L 168.4 -47.3 L 168.4 -47.3 Q 169.7 -46.2 172.1 -46.2 L 172.1 -46.2 L 172.1 -46.2 Q 174.6 -46.2 177.2 -47.3 L 177.2 -47.3 L 177.2 -47.3 Q 179.8 -48.4 180.8 -50.2 Z M 167.8 -57.2 L 167.8 -57.2 L 167.8 -57.2 Q 172.3 -57.2 175 -60 L 175 -60 L 175 -60 Q 177.6 -62.7 177.6 -67 L 177.6 -67 L 177.6 -67 Q 177.6 -68.5 177 -69.3 L 177 -69.3 L 177 -69.3 Q 176.5 -70.1 175.4 -70.1 L 175.4 -70.1 L 175.4 -70.1 Q 174.3 -70.1 173.4 -69.6 L 173.4 -69.6 L 173.4 -69.6 Q 172.5 -69.2 171.5 -67.8 L 171.5 -67.8 L 171.5 -67.8 Q 169.1 -64.6 167.8 -57.2 Z M 208.1 -61.9 L 208.1 -61.9 L 208.1 -61.9 Q 209 -64.2 209 -66.3 L 209 -66.3 L 209 -66.3 Q 209 -70.1 205.9 -70.1 L 205.9 -70.1 L 205.9 -70.1 Q 204.3 -70.1 203 -68.6 L 203 -68.6 L 203 -68.6 Q 201.7 -67.2 201.7 -65.4 L 201.7 -65.4 L 201.7 -65.4 Q 201.7 -64.1 202.7 -63.1 L 202.7 -63.1 L 202.7 -63.1 Q 204.2 -61.7 208 -59.4 L 208 -59.4 L 208 -59.4 Q 211.8 -57.1 213.2 -55.2 L 213.2 -55.2 L 213.2 -55.2 Q 214.6 -53.3 214.6 -50.7 L 214.6 -50.7 L 214.6 -50.7 Q 214.6 -48.1 213.4 -45.7 L 213.4 -45.7 L 213.4 -45.7 Q 212.1 -43.4 209.9 -41.7 L 209.9 -41.7 L 209.9 -41.7 Q 205.1 -38.1 197.4 -38.1 L 197.4 -38.1 L 197.4 -38.1 Q 193.3 -38.1 190.1 -40.3 L 190.1 -40.3 L 190.1 -40.3 Q 186.9 -42.4 186.9 -44.9 L 186.9 -44.9 L 186.9 -44.9 Q 186.9 -47.4 188.7 -48.9 L 188.7 -48.9 L 188.7 -48.9 Q 190.5 -50.3 193.2 -50.3 L 193.2 -50.3 L 193.2 -50.3 Q 195.9 -50.3 197.5 -49.3 L 197.5 -49.3 L 197.5 -49.3 Q 196.7 -47.2 196.7 -45.8 L 196.7 -45.8 L 196.7 -45.8 Q 196.7 -41.6 200.3 -41.6 L 200.3 -41.6 L 200.3 -41.6 Q 201.8 -41.6 202.9 -42.5 L 202.9 -42.5 L 202.9 -42.5 Q 203.9 -43.5 203.9 -45.2 L 203.9 -45.2 L 203.9 -45.2 Q 203.9 -48.4 198.4 -51.9 L 198.4 -51.9 L 198.4 -51.9 Q 193.9 -54.8 192.9 -56 L 192.9 -56 L 192.9 -56 Q 191.1 -58 191.1 -60.6 L 191.1 -60.6 L 191.1 -60.6 Q 191.1 -63.1 192.4 -65.6 L 192.4 -65.6 L 192.4 -65.6 Q 193.6 -68 195.8 -69.7 L 195.8 -69.7 L 195.8 -69.7 Q 200.5 -73.3 208.6 -73.3 L 208.6 -73.3 L 208.6 -73.3 Q 212.8 -73.3 215.2 -71.7 L 215.2 -71.7 L 215.2 -71.7 Q 217.7 -70 217.7 -67.2 L 217.7 -67.2 L 217.7 -67.2 Q 217.7 -64.4 216 -62.8 L 216 -62.8 L 216 -62.8 Q 214.3 -61.2 211.2 -61.2 L 211.2 -61.2 L 211.2 -61.2 Q 209.1 -61.2 208.1 -61.9 Z M 237.8 -66.1 L 237.8 -66.1 L 237.8 -66.1 Q 240 -69.2 243.3 -71.3 L 243.3 -71.3 L 243.3 -71.3 Q 246.6 -73.3 250.6 -73.3 L 250.6 -73.3 L 250.6 -73.3 Q 254.6 -73.3 256.6 -72 L 256.6 -72 L 269.1 -73.3 L 264.7 -48.7 L 264.7 -48.7 Q 262.5 -36.2 257.8 -31.3 L 257.8 -31.3 L 257.8 -31.3 Q 253.2 -26.6 244.4 -26.6 L 244.4 -26.6 L 244.4 -26.6 Q 237.7 -26.6 233.8 -28.7 L 233.8 -28.7 L 233.8 -28.7 Q 230 -30.8 230 -34.3 L 230 -34.3 L 230 -34.3 Q 230 -37 232 -38.5 L 232 -38.5 L 232 -38.5 Q 234 -40 237 -40 L 237 -40 L 237 -40 Q 239.7 -40 241.8 -38.8 L 241.8 -38.8 L 241.8 -38.8 Q 243 -38.1 243.6 -37.2 L 243.6 -37.2 L 243.6 -37.2 Q 242.1 -35.9 242.1 -33.8 L 242.1 -33.8 L 242.1 -33.8 Q 242.1 -31.1 244.6 -31.1 L 244.6 -31.1 L 244.6 -31.1 Q 248.9 -31.1 251.4 -41.2 L 251.4 -41.2 L 251.4 -41.2 Q 252.1 -43.9 252.6 -46.7 L 252.6 -46.7 L 252.6 -46.7 Q 249.8 -43.2 243.2 -43.2 L 243.2 -43.2 L 243.2 -43.2 Q 238.7 -43.2 236.1 -45.3 L 236.1 -45.3 L 236.1 -45.3 Q 233.4 -47.5 233.4 -52.6 L 233.4 -52.6 L 233.4 -52.6 Q 233.4 -55.8 234.5 -59.5 L 234.5 -59.5 L 234.5 -59.5 Q 235.6 -63.1 237.8 -66.1 Z M 246.1 -52.5 L 246.1 -52.5 L 246.1 -52.5 Q 246.1 -48.1 248.4 -48.1 L 248.4 -48.1 L 248.4 -48.1 Q 249.9 -48.1 251.4 -49.8 L 251.4 -49.8 L 251.4 -49.8 Q 252.5 -51.1 253 -53.1 L 253 -53.1 L 256.2 -69.5 L 256.2 -69.5 Q 255.9 -69.6 255.6 -69.7 L 255.6 -69.7 L 255.6 -69.7 Q 255 -70 254.1 -70 L 254.1 -70 L 254.1 -70 Q 250.2 -70 247.9 -63.6 L 247.9 -63.6 L 247.9 -63.6 Q 246.1 -58.6 246.1 -52.5 Z M 274.4 -41.3 L 274.4 -41.3 L 274.4 -41.3 Q 272.9 -43 272.2 -45.6 L 272.2 -45.6 L 272.2 -45.6 Q 271.5 -48.2 271.5 -52.5 L 271.5 -52.5 L 271.5 -52.5 Q 271.5 -56.8 273 -60.7 L 273 -60.7 L 273 -60.7 Q 274.5 -64.6 277.2 -67.4 L 277.2 -67.4 L 277.2 -67.4 Q 282.7 -73.3 291.8 -73.3 L 291.8 -73.3 L 291.8 -73.3 Q 295 -73.3 297.4 -72.2 L 297.4 -72.2 L 308.3 -73.3 L 303.6 -48.4 L 303.6 -48.4 Q 303.4 -47.6 303.4 -46.2 L 303.4 -46.2 L 303.4 -46.2 Q 303.4 -44.8 304.3 -43.9 L 304.3 -43.9 L 304.3 -43.9 Q 305.1 -43 306.4 -42.9 L 306.4 -42.9 L 306.4 -42.9 Q 305.8 -40.7 303.4 -39.4 L 303.4 -39.4 L 303.4 -39.4 Q 301.1 -38.1 298.5 -38.1 L 298.5 -38.1 L 298.5 -38.1 Q 295.8 -38.1 294.1 -39.1 L 294.1 -39.1 L 294.1 -39.1 Q 292.3 -40.1 291.8 -41.8 L 291.8 -41.8 L 291.8 -41.8 Q 290.8 -40.2 288.6 -39.1 L 288.6 -39.1 L 288.6 -39.1 Q 286.4 -38.1 283.5 -38.1 L 283.5 -38.1 L 283.5 -38.1 Q 280.6 -38.1 278.2 -38.9 L 278.2 -38.9 L 278.2 -38.9 Q 275.9 -39.7 274.4 -41.3 Z M 287.9 -67.3 L 287.9 -67.3 L 287.9 -67.3 Q 287.1 -66.1 286.5 -64.2 L 286.5 -64.2 L 286.5 -64.2 Q 285.9 -62.2 284.8 -57 L 284.8 -57 L 284.8 -57 Q 283.8 -51.8 283.8 -48.1 L 283.8 -48.1 L 283.8 -48.1 Q 283.8 -44.4 284.3 -43.3 L 284.3 -43.3 L 284.3 -43.3 Q 284.9 -42.2 285.9 -42.2 L 285.9 -42.2 L 285.9 -42.2 Q 288 -42.2 289.5 -44.2 L 289.5 -44.2 L 289.5 -44.2 Q 291 -46.1 291.6 -49.6 L 291.6 -49.6 L 295 -68.3 L 295 -68.3 Q 293.6 -69.5 292 -69.5 L 292 -69.5 L 292 -69.5 Q 290.5 -69.5 289.5 -69 L 289.5 -69 L 289.5 -69 Q 288.6 -68.5 287.9 -67.3 Z M 327.1 -42.9 L 327.1 -42.9 L 327.1 -42.9 Q 325.1 -38.1 318.8 -38.1 L 318.8 -38.1 L 318.8 -38.1 Q 315.6 -38.1 313.5 -40.4 L 313.5 -40.4 L 313.5 -40.4 Q 311.8 -42.2 311.8 -44.3 L 311.8 -44.3 L 311.8 -44.3 Q 311.8 -49.1 314.1 -59.6 L 314.1 -59.6 L 318.8 -84.2 L 331.8 -85.5 L 325.5 -53.1 L 325.5 -53.1 Q 324.5 -48.4 324.5 -46.7 L 324.5 -46.7 L 324.5 -46.7 Q 324.5 -43 327.1 -42.9 Z M 347.8 -42.9 L 347.8 -42.9 L 347.8 -42.9 Q 345.8 -38.1 339.5 -38.1 L 339.5 -38.1 L 339.5 -38.1 Q 336.3 -38.1 334.2 -40.4 L 334.2 -40.4 L 334.2 -40.4 Q 332.6 -42.2 332.6 -44.3 L 332.6 -44.3 L 332.6 -44.3 Q 332.6 -49.1 334.8 -59.6 L 334.8 -59.6 L 339.5 -84.2 L 352.5 -85.5 L 346.3 -53.1 L 346.3 -53.1 Q 345.2 -48.4 345.2 -46.7 L 345.2 -46.7 L 345.2 -46.7 Q 345.2 -43 347.8 -42.9 Z M 379.2 -50.2 L 379.2 -50.2 L 379.2 -50.2 Q 380.8 -49.1 380.8 -46.7 L 380.8 -46.7 L 380.8 -46.7 Q 380.8 -44.3 379.6 -42.8 L 379.6 -42.8 L 379.6 -42.8 Q 378.3 -41.3 376.4 -40.2 L 376.4 -40.2 L 376.4 -40.2 Q 372.3 -38.1 367.8 -38.1 L 367.8 -38.1 L 367.8 -38.1 Q 363.4 -38.1 360.8 -39.1 L 360.8 -39.1 L 360.8 -39.1 Q 358.2 -40 356.5 -41.8 L 356.5 -41.8 L 356.5 -41.8 Q 353.1 -45.2 353.1 -51.4 L 353.1 -51.4 L 353.1 -51.4 Q 353.1 -61.1 358.4 -67 L 358.4 -67 L 358.4 -67 Q 364 -73.3 373.8 -73.3 L 373.8 -73.3 L 373.8 -73.3 Q 379.9 -73.3 382.9 -70.8 L 382.9 -70.8 L 382.9 -70.8 Q 385.1 -68.8 385.1 -65.7 L 385.1 -65.7 L 385.1 -65.7 Q 385.1 -54.4 365.7 -54.4 L 365.7 -54.4 L 365.7 -54.4 Q 365.4 -52.8 365.4 -51.4 L 365.4 -51.4 L 365.4 -51.4 Q 365.4 -48.4 366.7 -47.3 L 366.7 -47.3 L 366.7 -47.3 Q 368 -46.2 370.5 -46.2 L 370.5 -46.2 L 370.5 -46.2 Q 372.9 -46.2 375.5 -47.3 L 375.5 -47.3 L 375.5 -47.3 Q 378.1 -48.4 379.2 -50.2 Z M 366.1 -57.2 L 366.1 -57.2 L 366.1 -57.2 Q 370.7 -57.2 373.3 -60 L 373.3 -60 L 373.3 -60 Q 375.9 -62.7 375.9 -67 L 375.9 -67 L 375.9 -67 Q 375.9 -68.5 375.4 -69.3 L 375.4 -69.3 L 375.4 -69.3 Q 374.8 -70.1 373.7 -70.1 L 373.7 -70.1 L 373.7 -70.1 Q 372.6 -70.1 371.7 -69.6 L 371.7 -69.6 L 371.7 -69.6 Q 370.8 -69.2 369.8 -67.8 L 369.8 -67.8 L 369.8 -67.8 Q 367.5 -64.6 366.1 -57.2 Z M 407.3 -57.4 L 407.3 -57.4 L 407.3 -57.4 Q 409.6 -61.5 409.6 -65.6 L 409.6 -65.6 L 409.6 -65.6 Q 409.6 -68.4 407.7 -68.4 L 407.7 -68.4 L 407.7 -68.4 Q 406.1 -68.4 404.5 -65.8 L 404.5 -65.8 L 404.5 -65.8 Q 402.9 -63.1 402.3 -59.7 L 402.3 -59.7 L 399 -39.4 L 385.8 -38.1 L 392.3 -72 L 402.9 -73.3 L 401.7 -66.9 L 401.7 -66.9 Q 404.8 -73.3 411.9 -73.3 L 411.9 -73.3 L 411.9 -73.3 Q 415.6 -73.3 417.6 -71.4 L 417.6 -71.4 L 417.6 -71.4 Q 419.6 -69.5 419.6 -65.5 L 419.6 -65.5 L 419.6 -65.5 Q 419.6 -61.6 417 -59.1 L 417 -59.1 L 417 -59.1 Q 414.4 -56.6 410 -56.6 L 410 -56.6 L 410 -56.6 Q 408.1 -56.6 407.3 -57.4 Z M 441 -46.6 L 441 -46.6 L 441 -46.6 Q 437.7 -43.2 431.6 -43.2 L 431.6 -43.2 L 431.6 -43.2 Q 424 -43.2 422.4 -48.7 L 422.4 -48.7 L 422.4 -48.7 Q 421.9 -50.4 421.9 -52.3 L 421.9 -52.3 L 421.9 -52.3 Q 421.9 -54.1 422.2 -56 L 422.2 -56 L 425.3 -72 L 438.2 -73.3 L 434.7 -54.7 L 434.7 -54.7 Q 434.6 -53.9 434.4 -53 L 434.4 -53 L 434.4 -53 Q 434.2 -52.1 434.2 -51.1 L 434.2 -51.1 L 434.2 -51.1 Q 434.2 -50.2 434.5 -49.6 L 434.5 -49.6 L 434.5 -49.6 Q 434.9 -49 435.3 -48.6 L 435.3 -48.6 L 435.3 -48.6 Q 436.1 -48.1 437.4 -48.1 L 437.4 -48.1 L 437.4 -48.1 Q 438.8 -48.1 440 -49.8 L 440 -49.8 L 440 -49.8 Q 441.2 -51.4 441.8 -54.3 L 441.8 -54.3 L 445.3 -72 L 457.9 -73.3 L 453.1 -48.2 L 453.1 -48.2 Q 450.7 -35.9 445.9 -31 L 445.9 -31 L 445.9 -31 Q 443.4 -28.5 440.1 -27.5 L 440.1 -27.5 L 440.1 -27.5 Q 436.9 -26.5 432.7 -26.5 L 432.7 -26.5 L 432.7 -26.5 Q 426 -26.5 422.2 -28.6 L 422.2 -28.6 L 422.2 -28.6 Q 418.3 -30.8 418.3 -34.3 L 418.3 -34.3 L 418.3 -34.3 Q 418.3 -36.9 420.3 -38.4 L 420.3 -38.4 L 420.3 -38.4 Q 422.3 -39.9 425.4 -39.9 L 425.4 -39.9 L 425.4 -39.9 Q 428.1 -39.9 430.1 -38.8 L 430.1 -38.8 L 430.1 -38.8 Q 431.3 -38.1 431.9 -37.2 L 431.9 -37.2 L 431.9 -37.2 Q 430.4 -35.9 430.4 -33.8 L 430.4 -33.8 L 430.4 -33.8 Q 430.4 -30.9 433 -30.9 L 433 -30.9 L 433 -30.9 Q 437.2 -30.9 439.7 -40.7 L 439.7 -40.7 L 439.7 -40.7 Q 440.4 -43.6 441 -46.6 Z" fill="url(#editing-gradient-gradient)"></path></g></g><style>text {
  font-size: 64px;
  font-family: Arial Black;
  dominant-baseline: central;
  text-anchor: middle;
}</style></svg>